<?xml version="1.0" encoding="UTF-8"?>
<svg version="1.2" baseProfile="tiny-ps" xmlns="http://www.w3.org/2000/svg" viewBox="0 0 100 100" xml:space="preserve">
  <title>Blackstone Assurance Authoritative Logo</title>
  
  <path d="M50,95 L12,75 V25 L50,5 L88,25 V75 Z" fill="#0f172a"/>
  
  <path d="M40,25 V75 L48,68 V32 Z" fill="#005F6A"/>
  
  <path d="M48,32 L60,28 L68,36 V48 L60,56 L48,49 V39 Z" fill="#B87333"/>
  
  <path d="M48,49 L60,56 L68,64 V76 L60,84 L48,77 V67 Z" fill="#003D45"/>
  
  <path d="M48,49 L55,44 L60,49 V56 L55,61 L48,56 Z" fill="#14B8A6"/>
  
  <path d="M44,30 H56 C60,30 60,38 56,38 C62,38 62,50 56,50 H44 Z" fill="#f8f9fa"/>
  
  <path d="M46,33 V36 H54 C56,36 56,33 54,33 Z" fill="#005F6A"/>
  <path d="M46,41 V48 H55 C58,48 58,41 55,41 Z" fill="#005F6A"/>
  
</svg>
