<?xml version="1.0" encoding="UTF-8"?>
<svg version="1.2" baseProfile="tiny-ps" xmlns="http://www.w3.org/2000/svg" viewBox="0 0 100 100" width="100%" height="100%">
  <title>Blackstone Assurance BIMI Mark</title>
  
  <polygon points="25,25 40,15 40,50 25,40" fill="#005F6A"/>
  
  <polygon points="25,40 40,50 40,85 25,75" fill="#003D45"/>
  
  <polygon points="40,15 75,30 55,50 40,40" fill="#1E3A8A"/>
  
  <polygon points="40,40 55,50 40,50" fill="#B87333"/>
  
  <polygon points="40,50 75,65 55,85 40,75" fill="#0B1B3D"/>
  
  <polygon points="40,50 65,55 75,65 40,60" fill="#B87333"/>
  
  <polygon points="40,60 75,65 55,85 40,75" fill="#081024"/>

  <polygon points="40,50 55,50 40,60" fill="#005F6A"/>
</svg>
